<?xml version="1.0" standalone="no"?>
<!DOCTYPE svg PUBLIC "-//W3C//DTD SVG 20010904//EN"
 "http://www.w3.org/TR/2001/REC-SVG-20010904/DTD/svg10.dtd">
<svg version="1.0" xmlns="http://www.w3.org/2000/svg"
 width="400.000000pt" height="400.000000pt" viewBox="0 0 400.000000 400.000000"
 preserveAspectRatio="xMidYMid meet">
<metadata>
Created by potrace 1.14, written by Peter Selinger 2001-2017
</metadata>
<g transform="translate(0.000000,400.000000) scale(0.100000,-0.100000)"
fill="#000000" stroke="none">
<path d="M2275 3749 c-108 -23 -232 -71 -335 -126 l-85 -47 120 -27 c66 -16
136 -32 155 -36 26 -7 43 -4 67 9 23 12 34 14 39 6 5 -7 2 -8 -7 -4 -8 4 -5 0
6 -9 19 -17 19 -17 -19 -12 -23 4 -35 3 -30 -3 5 -4 44 -13 87 -19 42 -6 103
-20 135 -32 31 -11 71 -23 89 -26 28 -4 31 -3 26 15 -5 20 -3 20 33 10 48 -13
96 -46 91 -62 -2 -6 -9 -11 -15 -11 -5 0 -13 -3 -16 -6 -10 -10 -139 10 -251
40 -135 36 -459 116 -537 132 -32 7 -55 16 -52 20 7 13 -98 25 -279 33 -96 4
-286 -34 -407 -82 -73 -29 -166 -77 -192 -100 -10 -8 -18 -12 -18 -8 0 21
-184 -126 -257 -206 -21 -23 -46 -48 -55 -57 -10 -8 -18 -21 -18 -28 0 -7 -3
-13 -7 -13 -13 0 -75 -98 -69 -108 3 -5 -17 -13 -46 -16 -67 -9 -106 -26 -153
-67 -54 -48 -75 -99 -75 -187 0 -161 114 -367 315 -567 79 -80 64 -72 -29 15
l-48 45 43 -80 c24 -44 48 -85 54 -92 5 -6 26 -34 45 -62 19 -28 40 -51 47
-51 6 0 15 -5 19 -12 5 -7 3 -8 -7 -3 -12 7 -12 6 0 -9 22 -27 73 -45 90 -32
10 8 17 6 27 -8 7 -11 11 -23 7 -29 -9 -14 19 -27 34 -16 9 8 10 4 3 -20 -6
-22 -5 -31 3 -31 8 0 8 -3 -1 -9 -9 -5 -11 -17 -6 -35 6 -24 10 -27 35 -22 41
8 36 1 -18 -26 -27 -13 -50 -26 -53 -29 -3 -4 -27 -18 -55 -32 -70 -35 -192
-123 -205 -147 -14 -27 -9 -79 10 -93 13 -10 13 -10 3 4 -11 13 -8 21 16 45
50 51 226 143 321 169 21 6 20 4 -7 -14 -40 -25 -41 -40 -9 -181 61 -269 198
-512 401 -715 260 -260 569 -403 943 -435 648 -57 1276 343 1510 960 183 482
105 1018 -208 1435 -100 133 -289 306 -396 363 -20 10 -21 18 -17 74 9 114
-29 284 -84 371 -13 21 -27 35 -32 33 -5 -3 -17 4 -27 16 -34 38 -117 93 -204
135 -47 23 -94 49 -105 58 -11 9 -14 14 -7 10 26 -13 10 4 -22 24 -18 12 -45
21 -59 21 -14 0 -28 4 -31 9 -10 15 -136 9 -221 -10z m-1085 -483 c0 -2 -7 -7
-16 -10 -8 -3 -12 -2 -9 4 6 10 25 14 25 6z m-65 -26 c-3 -5 -13 -10 -21 -10
-8 0 -49 -34 -90 -75 -41 -41 -69 -65 -63 -53 19 35 101 112 139 130 41 21 43
21 35 8z m-194 -193 c-10 -9 -11 -8 -5 6 3 10 9 15 12 12 3 -3 0 -11 -7 -18z
m513 -31 c60 -28 134 -91 160 -137 l19 -34 -29 27 c-86 80 -204 74 -250 -14
-44 -83 -4 -239 81 -317 96 -88 203 -70 250 41 8 21 15 50 16 65 l1 28 10 -30
c5 -16 10 -73 11 -125 1 -80 -2 -103 -22 -148 -30 -67 -105 -135 -173 -158
-177 -59 -385 101 -474 366 -27 80 -26 229 2 291 72 156 242 218 398 145z
m1628 -318 c0 -57 -2 -118 -6 -135 l-8 -33 -56 30 c-31 17 -88 44 -126 60
l-68 30 49 38 c61 49 96 90 136 161 l31 55 24 -52 c19 -43 23 -69 24 -154z
m57 175 c173 -129 325 -311 424 -508 53 -107 61 -141 52 -239 -4 -47 -10 -86
-13 -86 -4 1 -19 20 -34 43 -60 96 -325 357 -362 357 -6 0 -28 15 -50 33 l-38
33 11 88 c10 73 9 101 -4 172 -9 47 -20 96 -25 109 -12 32 -5 31 39 -2z
m-1626 -30 c23 -27 9 -85 -24 -97 -33 -11 -79 17 -79 48 0 56 67 88 103 49z
m-831 -122 c37 -18 74 -41 82 -50 14 -16 13 -18 -17 -29 -125 -45 -72 -299 76
-371 77 -37 142 -24 183 37 l22 32 17 -43 c42 -105 25 -217 -39 -257 -114 -70
-285 -13 -446 149 -95 96 -150 173 -186 262 -45 111 -44 194 3 250 40 48 77
60 163 56 60 -3 88 -10 142 -36z m992 -50 c22 -146 -127 -221 -225 -114 -14
15 -28 36 -32 45 -7 19 8 34 18 18 11 -18 83 -50 114 -50 20 0 37 9 55 31 22
26 26 41 26 92 l0 62 19 -24 c11 -14 22 -41 25 -60z m-264 49 c12 -8 9 -10
-13 -10 -16 0 -26 4 -22 10 8 12 16 12 35 0z m-585 -109 c0 -4 8 -15 18 -25
31 -32 12 -96 -29 -96 -28 0 -64 32 -64 56 0 27 32 64 56 64 9 0 12 5 8 13 -4
7 -3 9 2 4 5 -5 9 -12 9 -16z m2026 -21 c41 -17 104 -49 140 -71 l67 -40 -10
-42 c-17 -78 -138 -305 -221 -416 -43 -58 -81 -107 -82 -109 -2 -2 -55 42
-118 99 l-116 102 24 32 c39 51 114 217 135 301 22 83 37 114 79 150 14 13 27
24 27 24 1 0 34 -14 75 -30z m-1950 -47 c13 -16 12 -17 -3 -4 -10 7 -18 15
-18 17 0 8 8 3 21 -13z m100 -158 c11 -87 -66 -139 -154 -106 -36 14 -85 65
-93 97 l-7 27 48 -36 c88 -68 160 -43 160 54 l0 48 22 -37 c13 -20 23 -41 24
-47z m1576 53 c-3 -8 -6 -5 -6 6 -1 11 2 17 5 13 3 -3 4 -12 1 -19z m563 -8
c3 -3 19 -14 35 -24 128 -81 324 -278 392 -394 l27 -45 -24 -71 c-39 -115
-119 -264 -209 -388 -119 -167 -107 -161 -171 -80 -74 92 -111 133 -272 304
l-140 148 35 42 c96 119 267 420 267 470 0 9 5 29 10 43 9 24 12 26 28 14 9
-8 19 -16 22 -19z m-579 -33 c-10 -9 -11 -8 -5 6 3 10 9 15 12 12 3 -3 0 -11
-7 -18z m-19 -49 c-8 -8 -9 -4 -5 13 4 13 8 18 11 10 2 -7 -1 -18 -6 -23z
m-21 -41 c-10 -9 -11 -8 -5 6 3 10 9 15 12 12 3 -3 0 -11 -7 -18z m-25 -45
c-18 -16 -18 -16 -6 6 6 13 14 21 18 18 3 -4 -2 -14 -12 -24z m-23 -37 c-3 -9
-8 -14 -10 -11 -3 3 -2 9 2 15 9 16 15 13 8 -4z m-49 -60 c-15 -20 -29 -33
-32 -30 -5 5 46 65 55 65 2 0 -8 -16 -23 -35z m-44 -39 c0 -2 -8 -10 -17 -17
-16 -13 -17 -12 -4 4 13 16 21 21 21 13z m1320 -235 c0 -33 -1 -32 -30 25 -29
58 -29 61 -17 124 l12 65 17 -90 c9 -49 17 -105 18 -124z m-1375 189 c-3 -5
-12 -10 -18 -10 -7 0 -6 4 3 10 19 12 23 12 15 0z m-1681 -29 c-2 -3 -12 3
-22 13 -16 17 -16 18 5 5 12 -7 20 -15 17 -18z m1891 -24 c29 -24 80 -68 115
-99 l62 -57 -89 -92 c-89 -93 -223 -211 -323 -285 -76 -57 -200 -138 -203
-133 -71 102 -271 458 -263 466 3 3 61 14 128 24 67 11 149 26 183 35 92 26
214 86 275 137 30 25 57 46 59 46 2 1 27 -18 56 -42z m-255 23 c-8 -5 -19 -10
-25 -10 -5 0 -3 5 5 10 8 5 20 10 25 10 6 0 3 -5 -5 -10z m1367 -197 c34 -89
53 -175 53 -237 0 -171 -102 -473 -218 -644 l-29 -43 -12 48 c-20 76 -67 182
-119 263 l-48 75 57 72 c102 129 236 367 270 481 6 23 15 42 18 42 3 0 16 -26
28 -57z m-629 -299 c59 -66 127 -146 151 -177 l43 -57 -40 -48 c-113 -135
-369 -350 -560 -471 -45 -29 -54 -31 -69 -20 -67 56 -429 532 -412 542 202
127 343 238 494 392 l120 122 83 -81 c46 -45 132 -135 190 -202z m-1185 167
c26 -54 85 -162 132 -239 47 -78 85 -144 85 -147 0 -12 -247 -124 -340 -155
-100 -32 -260 -63 -271 -52 -4 4 -16 36 -28 72 -61 190 -111 517 -81 535 5 3
85 21 177 40 302 61 268 67 326 -54z m-1009 13 c3 -8 2 -12 -4 -9 -6 3 -10 10
-10 16 0 14 7 11 14 -7z m456 -81 c0 -38 7 -113 15 -168 14 -96 68 -311 87
-347 8 -16 3 -18 -44 -18 -113 1 -257 46 -324 103 -37 31 -43 63 -53 268 l-6
137 150 45 c83 25 156 46 163 46 8 1 12 -19 12 -66z m-370 -73 c0 -16 -2 -30
-4 -30 -2 0 -6 14 -8 30 -3 17 -1 30 4 30 4 0 8 -13 8 -30z m1205 -332 c63
-96 227 -309 309 -402 103 -117 107 -101 -54 -179 -166 -79 -334 -132 -481
-152 l-46 -6 -79 84 c-95 99 -185 229 -246 352 -63 126 -66 135 -34 135 93 0
333 78 496 161 52 26 98 48 101 48 4 1 19 -18 34 -41z m1187 -69 c64 -111 89
-180 95 -260 l5 -66 -108 -110 c-113 -115 -288 -243 -331 -243 -40 0 -117 32
-183 75 -69 46 -188 150 -180 157 3 3 46 32 95 66 147 99 302 229 425 353 63
64 119 116 124 115 6 -1 31 -40 58 -87z m-2200 -51 c83 -40 160 -58 247 -58
l56 0 62 -128 c66 -134 165 -277 261 -374 31 -32 53 -61 49 -65 -4 -4 -49 -2
-99 5 -88 11 -96 14 -178 69 -167 112 -368 341 -459 520 -32 64 -36 77 -23 71
4 -2 41 -20 84 -40z m1617 -562 c31 -21 87 -53 124 -71 l69 -32 -49 -20 c-177
-75 -305 -103 -514 -110 -188 -6 -219 0 -344 68 -119 65 -119 62 -13 83 150
30 407 130 523 204 l30 19 59 -51 c32 -28 84 -69 115 -90z m-820 -148 c33 -23
59 -44 56 -46 -5 -5 -214 64 -235 78 -11 7 5 10 52 10 62 0 71 -3 127 -42z"/>
</g>
</svg>
